<?xml version="1.0" encoding="utf-8"?>
<!-- Generator: Adobe Illustrator 22.1.0, SVG Export Plug-In . SVG Version: 6.00 Build 0)  -->
<svg version="1.1" id="Layer_1" xmlns="http://www.w3.org/2000/svg" xmlns:xlink="http://www.w3.org/1999/xlink" x="0px" y="0px"
	 viewBox="0 0 512 512" style="enable-background:new 0 0 512 512;" xml:space="preserve">
<g style="fill: white;">
	<path d="M194.6,332.8c-8.5,8.5-8.5,22.2,0,30.7c8.5,8.5,22.2,8.5,30.7,0l138.1-138.1c17-17,44.4-17,61.4,0s17,44.4,0,61.4
		L289.4,422.2c16.9,17,44.4,17,61.4,0l0,0l104.8-104.8c33.9-33.9,33.9-88.9,0-122.8c-33.9-33.9-88.9-33.9-122.8,0L194.6,332.8
		L194.6,332.8z M409.5,240.7c-8.5-8.5-22.2-8.5-30.7,0L240.6,378.8c-16.9,17-44.4,17-61.4,0l0,0c-8.5-8.5-22.2-8.5-30.7,0l0,0
		c-8.5,8.5-8.5,22.2,0,30.7l0,0c33.9,33.9,88.9,33.9,122.8,0l138.2-138.2C418,262.9,418,249.1,409.5,240.7L409.5,240.7z
		 M179.2,317.4l138.1-138.1c8.5-8.5,8.5-22.2,0-30.7c-8.5-8.5-22.2-8.5-30.7,0L148.5,286.7c-16.9,17-44.4,17-61.4,0l0,0
		c-17-16.9-17-44.4,0-61.4l0,0L222.6,89.8c-16.9-17-44.4-17-61.4,0l0,0L56.4,194.6c-33.9,33.9-33.9,88.9,0,122.8
		C90.4,351.3,145.3,351.3,179.2,317.4z M102.5,271.4c8.5,8.5,22.2,8.5,30.7,0l138.2-138.2c16.9-17,44.4-17,61.4,0l0,0
		c8.5,8.5,22.2,8.5,30.7,0c8.5-8.5,8.5-22.2,0-30.7c-33.9-33.9-88.9-33.9-122.8,0L102.5,240.7C94,249.1,94,262.9,102.5,271.4
		L102.5,271.4z"/>
</g>
</svg>
